<svg xmlns="http://www.w3.org/2000/svg" viewBox="0 0 740 500" role="img" aria-label="Minh hoạ thế giới kiếm hiệp">
  <defs>
    <linearGradient id="bg" x1="0" x2="0" y1="0" y2="1">
      <stop offset="0" stop-color="#d9f6f0"/>
      <stop offset="1" stop-color="#f6fbfa"/>
    </linearGradient>
  </defs>
  <rect width="740" height="500" fill="url(#bg)"/>
  <g fill="#0e7a66" opacity="0.2">
    <circle cx="120" cy="420" r="180"/>
    <circle cx="540" cy="440" r="220"/>
  </g>
  <g stroke="#0e7a66" stroke-width="4" fill="none" stroke-linecap="round">
    <path d="M120 360c80-40 160-40 240 0"/>
    <path d="M360 360c80-40 160-40 240 0"/>
  </g>
  <g stroke="#0e7a66" stroke-width="6" fill="none" stroke-linecap="round">
    <path d="M270 200 l40 -20 40 20 -40 100z" fill="#ffffff" opacity="0.9"/>
    <path d="M450 210 l45 -22 40 22 -40 95z" fill="#ffffff" opacity="0.9"/>
  </g>
  <g transform="translate(320,120)">
    <circle cx="0" cy="0" r="28" fill="#0e7a66"/>
    <rect x="-8" y="28" width="16" height="60" rx="8" fill="#0e7a66"/>
    <rect x="-36" y="40" width="72" height="10" rx="5" fill="#0e7a66"/>
    <rect x="30" y="35" width="120" height="8" rx="4" fill="#0e7a66"/>
  </g>
</svg>
